<?xml version="1.0" encoding="UTF-8" standalone="no"?>
<!DOCTYPE svg PUBLIC "-//W3C//DTD SVG 1.1//EN"
 "http://www.w3.org/Graphics/SVG/1.1/DTD/svg11.dtd">
<!-- Generated by graphviz version 2.26.3 (20100126.1600)
 -->
<!-- Title: G Pages: 1 -->
<svg viewBox="0.00 0.00 447.61 344.00" xmlns="http://www.w3.org/2000/svg" xmlns:xlink="http://www.w3.org/1999/xlink">
<g id="graph1" class="graph" transform="scale(1 1) rotate(0) translate(4 340)">
<title>G</title>
<polygon fill="white" stroke="#f4f4f4" points="-4,5 -4,-340 444.609,-340 444.609,5 -4,5"/>
<!-- FTC_A0019083 -->
<g id="node1" class="node"><title>FTC_A0019083</title>
<a target='_top' xlink:href="#" xlink:title="FTC_A0019083\nAnti&#45;viral transcription\nagent ">
<polygon fill="#72d93f" stroke="#72d93f" points="320.609,-36 230.609,-36 230.609,-1.06581e-14 320.609,-0 320.609,-36"/>
<text text-anchor="middle" x="275.609" y="-24.6" font-family="Times Roman,serif" font-size="6.00">FTC_A0019083</text>
<text text-anchor="middle" x="275.609" y="-16.6" font-family="Times Roman,serif" font-size="6.00">Anti&#45;viral transcription</text>
<text text-anchor="middle" x="275.609" y="-8.6" font-family="Times Roman,serif" font-size="6.00">agent </text>
</a>
</g>
<!-- FTC_A0009059 -->
<g id="node3" class="node"><title>FTC_A0009059</title>
<a target='_top' xlink:href="#" xlink:title="FTC_A0009059\nAnti&#45;macromolecule\nbiosynthetic process\nagent ">
<polygon fill="#72d93f" stroke="#72d93f" points="195.609,-86 105.609,-86 105.609,-50 195.609,-50 195.609,-86"/>
<text text-anchor="middle" x="150.609" y="-78.6" font-family="Times Roman,serif" font-size="6.00">FTC_A0009059</text>
<text text-anchor="middle" x="150.609" y="-70.6" font-family="Times Roman,serif" font-size="6.00">Anti&#45;macromolecule</text>
<text text-anchor="middle" x="150.609" y="-62.6" font-family="Times Roman,serif" font-size="6.00">biosynthetic process</text>
<text text-anchor="middle" x="150.609" y="-54.6" font-family="Times Roman,serif" font-size="6.00">agent </text>
</a>
</g>
<!-- FTC_A0019083&#45;&gt;FTC_A0009059 -->
<g id="edge2" class="edge"><title>FTC_A0019083&#45;&gt;FTC_A0009059</title>
<path fill="none" stroke="gray" d="M230.481,-36.0511C220.126,-40.1933 209.079,-44.6118 198.608,-48.8005"/>
<polygon fill="gray" stroke="gray" points="198.066,-47.8862 195.671,-49.9753 198.846,-49.836 198.066,-47.8862"/>
</g>
<!-- FTC_A0016032 -->
<g id="node16" class="node"><title>FTC_A0016032</title>
<a target='_top' xlink:href="#" xlink:title="FTC_A0016032\nAnti&#45;viral reproduction\nagent ">
<polygon fill="#72d93f" stroke="#72d93f" points="327.609,-186 237.609,-186 237.609,-150 327.609,-150 327.609,-186"/>
<text text-anchor="middle" x="282.609" y="-174.6" font-family="Times Roman,serif" font-size="6.00">FTC_A0016032</text>
<text text-anchor="middle" x="282.609" y="-166.6" font-family="Times Roman,serif" font-size="6.00">Anti&#45;viral reproduction</text>
<text text-anchor="middle" x="282.609" y="-158.6" font-family="Times Roman,serif" font-size="6.00">agent </text>
</a>
</g>
<!-- FTC_A0019083&#45;&gt;FTC_A0016032 -->
<g id="edge16" class="edge"><title>FTC_A0019083&#45;&gt;FTC_A0016032</title>
<path fill="none" stroke="gray" d="M289.332,-36.1151C291.916,-40.4492 294.236,-45.2139 295.609,-50 306.146,-86.7411 302.938,-98.487 295.609,-136 294.908,-139.586 293.805,-143.278 292.529,-146.823"/>
<polygon fill="gray" stroke="gray" points="291.498,-146.582 291.423,-149.76 293.463,-147.323 291.498,-146.582"/>
</g>
<!-- FTC_A0016070 -->
<g id="node21" class="node"><title>FTC_A0016070</title>
<a target='_top' xlink:href="#" xlink:title="FTC_A0016070\nAnti&#45;RNA metabolic\nprocess agent ">
<polygon fill="#72d93f" stroke="#72d93f" points="292.609,-86 202.609,-86 202.609,-50 292.609,-50 292.609,-86"/>
<text text-anchor="middle" x="247.609" y="-74.6" font-family="Times Roman,serif" font-size="6.00">FTC_A0016070</text>
<text text-anchor="middle" x="247.609" y="-66.6" font-family="Times Roman,serif" font-size="6.00">Anti&#45;RNA metabolic</text>
<text text-anchor="middle" x="247.609" y="-58.6" font-family="Times Roman,serif" font-size="6.00">process agent </text>
</a>
</g>
<!-- FTC_A0019083&#45;&gt;FTC_A0016070 -->
<g id="edge22" class="edge"><title>FTC_A0019083&#45;&gt;FTC_A0016070</title>
<path fill="none" stroke="gray" d="M265.5,-36.0511C263.542,-39.5477 261.474,-43.2413 259.466,-46.8272"/>
<polygon fill="gray" stroke="gray" points="258.347,-46.6768 257.797,-49.8074 260.179,-47.7029 258.347,-46.6768"/>
</g>
<!-- FTC_A0022414 -->
<g id="node35" class="node"><title>FTC_A0022414</title>
<a target='_top' xlink:href="#" xlink:title="FTC_A0022414\nAnti&#45;reproductive\nprocess agent ">
<polygon fill="#72d93f" stroke="#72d93f" points="383.609,-236 293.609,-236 293.609,-200 383.609,-200 383.609,-236"/>
<text text-anchor="middle" x="338.609" y="-224.6" font-family="Times Roman,serif" font-size="6.00">FTC_A0022414</text>
<text text-anchor="middle" x="338.609" y="-216.6" font-family="Times Roman,serif" font-size="6.00">Anti&#45;reproductive</text>
<text text-anchor="middle" x="338.609" y="-208.6" font-family="Times Roman,serif" font-size="6.00">process agent </text>
</a>
</g>
<!-- FTC_A0019083&#45;&gt;FTC_A0022414 -->
<g id="edge40" class="edge"><title>FTC_A0019083&#45;&gt;FTC_A0022414</title>
<path fill="none" stroke="gray" d="M294.035,-36.2208C297.605,-40.4775 301.032,-45.1833 303.609,-50 329.41,-98.2249 336.205,-163.677 337.985,-196.85"/>
<polygon fill="gray" stroke="gray" points="336.942,-197.015 338.142,-199.958 339.039,-196.909 336.942,-197.015"/>
</g>
<!-- FTC_A0044249 -->
<g id="node38" class="node"><title>FTC_A0044249</title>
<a target='_top' xlink:href="#" xlink:title="FTC_A0044249\nAnti&#45;cellular biosynthetic\nprocess agent ">
<polygon fill="#72d93f" stroke="#72d93f" points="98.6089,-86 8.60893,-86 8.60893,-50 98.6089,-50 98.6089,-86"/>
<text text-anchor="middle" x="53.6089" y="-74.6" font-family="Times Roman,serif" font-size="6.00">FTC_A0044249</text>
<text text-anchor="middle" x="53.6089" y="-66.6" font-family="Times Roman,serif" font-size="6.00">Anti&#45;cellular biosynthetic</text>
<text text-anchor="middle" x="53.6089" y="-58.6" font-family="Times Roman,serif" font-size="6.00">process agent </text>
</a>
</g>
<!-- FTC_A0019083&#45;&gt;FTC_A0044249 -->
<g id="edge44" class="edge"><title>FTC_A0019083&#45;&gt;FTC_A0044249</title>
<path fill="none" stroke="gray" d="M230.331,-24.2292C195.151,-29.5831 145.323,-38.2946 102.609,-50 102.281,-50.0898 101.952,-50.1809 101.623,-50.2731"/>
<polygon fill="gray" stroke="gray" points="101.23,-49.2936 98.6382,-51.1334 101.812,-51.3114 101.23,-49.2936"/>
</g>
<!-- FTC_P0016032 -->
<g id="node42" class="node"><title>FTC_P0016032</title>
<a target='_top' xlink:href="#" xlink:title="FTC_P0016032\nPro&#45;viral reproduction\nagent ">
<polygon fill="#72d93f" stroke="#72d93f" points="439.609,-136 349.609,-136 349.609,-100 439.609,-100 439.609,-136"/>
<text text-anchor="middle" x="394.609" y="-124.6" font-family="Times Roman,serif" font-size="6.00">FTC_P0016032</text>
<text text-anchor="middle" x="394.609" y="-116.6" font-family="Times Roman,serif" font-size="6.00">Pro&#45;viral reproduction</text>
<text text-anchor="middle" x="394.609" y="-108.6" font-family="Times Roman,serif" font-size="6.00">agent </text>
</a>
</g>
<!-- FTC_A0019083&#45;&gt;FTC_P0016032 -->
<g id="edge50" class="edge"><title>FTC_A0019083&#45;&gt;FTC_P0016032</title>
<path fill="none" stroke="gray" d="M320.635,-35.3602C328.708,-39.5122 336.73,-44.3966 343.609,-50 359.698,-63.1062 373.501,-82.3324 382.673,-97.0002"/>
<polygon fill="gray" stroke="gray" points="381.976,-97.869 384.446,-99.8698 383.763,-96.7656 381.976,-97.869"/>
</g>
<!-- FTC_A0009058 -->
<g id="node5" class="node"><title>FTC_A0009058</title>
<a target='_top' xlink:href="#" xlink:title="FTC_A0009058\nAnti&#45;biosynthetic\nprocess agent ">
<polygon fill="#72d93f" stroke="#72d93f" points="98.6089,-136 8.60893,-136 8.60893,-100 98.6089,-100 98.6089,-136"/>
<text text-anchor="middle" x="53.6089" y="-124.6" font-family="Times Roman,serif" font-size="6.00">FTC_A0009058</text>
<text text-anchor="middle" x="53.6089" y="-116.6" font-family="Times Roman,serif" font-size="6.00">Anti&#45;biosynthetic</text>
<text text-anchor="middle" x="53.6089" y="-108.6" font-family="Times Roman,serif" font-size="6.00">process agent </text>
</a>
</g>
<!-- FTC_A0009059&#45;&gt;FTC_A0009058 -->
<g id="edge4" class="edge"><title>FTC_A0009059&#45;&gt;FTC_A0009058</title>
<path fill="none" stroke="gray" d="M115.59,-86.0511C107.76,-90.087 99.4212,-94.3854 91.482,-98.4778"/>
<polygon fill="gray" stroke="gray" points="90.7622,-97.6675 88.5768,-99.9753 91.7245,-99.5341 90.7622,-97.6675"/>
</g>
<!-- FTC_A0043170 -->
<g id="node13" class="node"><title>FTC_A0043170</title>
<a target='_top' xlink:href="#" xlink:title="FTC_A0043170\nAnti&#45;macromolecule\nmetabolic process agent\n">
<polygon fill="#72d93f" stroke="#72d93f" points="195.609,-136 105.609,-136 105.609,-100 195.609,-100 195.609,-136"/>
<text text-anchor="middle" x="150.609" y="-124.6" font-family="Times Roman,serif" font-size="6.00">FTC_A0043170</text>
<text text-anchor="middle" x="150.609" y="-116.6" font-family="Times Roman,serif" font-size="6.00">Anti&#45;macromolecule</text>
<text text-anchor="middle" x="150.609" y="-108.6" font-family="Times Roman,serif" font-size="6.00">metabolic process agent</text>
</a>
</g>
<!-- FTC_A0009059&#45;&gt;FTC_A0043170 -->
<g id="edge12" class="edge"><title>FTC_A0009059&#45;&gt;FTC_A0043170</title>
<path fill="none" stroke="gray" d="M150.609,-86.0511C150.609,-89.4078 150.609,-92.9461 150.609,-96.3964"/>
<polygon fill="gray" stroke="gray" points="149.559,-96.8074 150.609,-99.8074 151.659,-96.8074 149.559,-96.8074"/>
</g>
<!-- FTC_A0008152 -->
<g id="node7" class="node"><title>FTC_A0008152</title>
<a target='_top' xlink:href="#" xlink:title="FTC_A0008152\nAnti&#45;metabolic process\nagent ">
<polygon fill="#72d93f" stroke="#72d93f" points="189.609,-236 99.6089,-236 99.6089,-200 189.609,-200 189.609,-236"/>
<text text-anchor="middle" x="144.609" y="-224.6" font-family="Times Roman,serif" font-size="6.00">FTC_A0008152</text>
<text text-anchor="middle" x="144.609" y="-216.6" font-family="Times Roman,serif" font-size="6.00">Anti&#45;metabolic process</text>
<text text-anchor="middle" x="144.609" y="-208.6" font-family="Times Roman,serif" font-size="6.00">agent </text>
</a>
</g>
<!-- FTC_A0009058&#45;&gt;FTC_A0008152 -->
<g id="edge6" class="edge"><title>FTC_A0009058&#45;&gt;FTC_A0008152</title>
<path fill="none" stroke="gray" d="M83.1532,-136.066C88.9335,-140.267 94.7138,-144.99 99.6089,-150 113.336,-164.049 125.402,-182.845 133.575,-197.115"/>
<polygon fill="gray" stroke="gray" points="132.764,-197.813 135.157,-199.905 134.591,-196.778 132.764,-197.813"/>
</g>
<!-- FTC_A0008150 -->
<g id="node9" class="node"><title>FTC_A0008150</title>
<a target='_top' xlink:href="#" xlink:title="FTC_A0008150\nAnti&#45;biological_process\nagent ">
<polygon fill="#72d93f" stroke="#72d93f" points="286.609,-286 196.609,-286 196.609,-250 286.609,-250 286.609,-286"/>
<text text-anchor="middle" x="241.609" y="-274.6" font-family="Times Roman,serif" font-size="6.00">FTC_A0008150</text>
<text text-anchor="middle" x="241.609" y="-266.6" font-family="Times Roman,serif" font-size="6.00">Anti&#45;biological_process</text>
<text text-anchor="middle" x="241.609" y="-258.6" font-family="Times Roman,serif" font-size="6.00">agent </text>
</a>
</g>
<!-- FTC_A0008152&#45;&gt;FTC_A0008150 -->
<g id="edge8" class="edge"><title>FTC_A0008152&#45;&gt;FTC_A0008150</title>
<path fill="none" stroke="gray" d="M179.628,-236.051C187.458,-240.087 195.797,-244.385 203.736,-248.478"/>
<polygon fill="gray" stroke="gray" points="203.493,-249.534 206.641,-249.975 204.456,-247.667 203.493,-249.534"/>
</g>
<!-- FTC_C1 -->
<g id="node11" class="node"><title>FTC_C1</title>
<a target='_top' xlink:href="#" xlink:title="FTC_C1\ntherapeutic agent ">
<polygon fill="#72d93f" stroke="#72d93f" points="348.609,-336 258.609,-336 258.609,-300 348.609,-300 348.609,-336"/>
<text text-anchor="middle" x="303.609" y="-320.6" font-family="Times Roman,serif" font-size="6.00">FTC_C1</text>
<text text-anchor="middle" x="303.609" y="-312.6" font-family="Times Roman,serif" font-size="6.00">therapeutic agent </text>
</a>
</g>
<!-- FTC_A0008150&#45;&gt;FTC_C1 -->
<g id="edge10" class="edge"><title>FTC_A0008150&#45;&gt;FTC_C1</title>
<path fill="none" stroke="gray" d="M263.992,-286.051C268.762,-289.897 273.827,-293.982 278.684,-297.899"/>
<polygon fill="gray" stroke="gray" points="278.056,-298.741 281.05,-299.807 279.374,-297.107 278.056,-298.741"/>
</g>
<!-- FTC_A0043170&#45;&gt;FTC_A0008152 -->
<g id="edge14" class="edge"><title>FTC_A0043170&#45;&gt;FTC_A0008152</title>
<path fill="none" stroke="gray" d="M141.795,-136.24C140.063,-140.646 138.506,-145.41 137.609,-150 134.562,-165.593 136.617,-183.474 139.27,-196.985"/>
<polygon fill="gray" stroke="gray" points="138.251,-197.244 139.88,-199.973 140.308,-196.824 138.251,-197.244"/>
</g>
<!-- FTC_A0051704 -->
<g id="node18" class="node"><title>FTC_A0051704</title>
<a target='_top' xlink:href="#" xlink:title="FTC_A0051704\nAnti&#45;multi&#45;organism\nprocess agent ">
<polygon fill="#72d93f" stroke="#72d93f" points="286.609,-236 196.609,-236 196.609,-200 286.609,-200 286.609,-236"/>
<text text-anchor="middle" x="241.609" y="-224.6" font-family="Times Roman,serif" font-size="6.00">FTC_A0051704</text>
<text text-anchor="middle" x="241.609" y="-216.6" font-family="Times Roman,serif" font-size="6.00">Anti&#45;multi&#45;organism</text>
<text text-anchor="middle" x="241.609" y="-208.6" font-family="Times Roman,serif" font-size="6.00">process agent </text>
</a>
</g>
<!-- FTC_A0016032&#45;&gt;FTC_A0051704 -->
<g id="edge18" class="edge"><title>FTC_A0016032&#45;&gt;FTC_A0051704</title>
<path fill="none" stroke="gray" d="M267.807,-186.051C264.825,-189.688 261.669,-193.537 258.618,-197.257"/>
<polygon fill="gray" stroke="gray" points="257.617,-196.822 256.527,-199.807 259.241,-198.153 257.617,-196.822"/>
</g>
<!-- FTC_A0051704&#45;&gt;FTC_A0008150 -->
<g id="edge20" class="edge"><title>FTC_A0051704&#45;&gt;FTC_A0008150</title>
<path fill="none" stroke="gray" d="M241.609,-236.051C241.609,-239.408 241.609,-242.946 241.609,-246.396"/>
<polygon fill="gray" stroke="gray" points="240.559,-246.807 241.609,-249.807 242.659,-246.807 240.559,-246.807"/>
</g>
<!-- FTC_A0016070&#45;&gt;FTC_A0043170 -->
<g id="edge38" class="edge"><title>FTC_A0016070&#45;&gt;FTC_A0043170</title>
<path fill="none" stroke="gray" d="M212.59,-86.0511C204.76,-90.087 196.421,-94.3854 188.482,-98.4778"/>
<polygon fill="gray" stroke="gray" points="187.762,-97.6675 185.577,-99.9753 188.724,-99.5341 187.762,-97.6675"/>
</g>
<!-- FTC_A0006139 -->
<g id="node23" class="node"><title>FTC_A0006139</title>
<a target='_top' xlink:href="#" xlink:title="FTC_A0006139\nAnti&#45;nucleobase&#45;containing\ncompound metabolic\nprocess agent ">
<polygon fill="#72d93f" stroke="#72d93f" points="292.609,-136 202.609,-136 202.609,-100 292.609,-100 292.609,-136"/>
<text text-anchor="middle" x="247.609" y="-128.6" font-family="Times Roman,serif" font-size="6.00">FTC_A0006139</text>
<text text-anchor="middle" x="247.609" y="-120.6" font-family="Times Roman,serif" font-size="6.00">Anti&#45;nucleobase&#45;containing</text>
<text text-anchor="middle" x="247.609" y="-112.6" font-family="Times Roman,serif" font-size="6.00">compound metabolic</text>
<text text-anchor="middle" x="247.609" y="-104.6" font-family="Times Roman,serif" font-size="6.00">process agent </text>
</a>
</g>
<!-- FTC_A0016070&#45;&gt;FTC_A0006139 -->
<g id="edge24" class="edge"><title>FTC_A0016070&#45;&gt;FTC_A0006139</title>
<path fill="none" stroke="gray" d="M247.609,-86.0511C247.609,-89.4078 247.609,-92.9461 247.609,-96.3964"/>
<polygon fill="gray" stroke="gray" points="246.559,-96.8074 247.609,-99.8074 248.659,-96.8074 246.559,-96.8074"/>
</g>
<!-- FTC_A0006807 -->
<g id="node25" class="node"><title>FTC_A0006807</title>
<a target='_top' xlink:href="#" xlink:title="FTC_A0006807\nAnti&#45;nitrogen compound\nmetabolic process agent\n">
<polygon fill="#72d93f" stroke="#72d93f" points="230.609,-186 140.609,-186 140.609,-150 230.609,-150 230.609,-186"/>
<text text-anchor="middle" x="185.609" y="-174.6" font-family="Times Roman,serif" font-size="6.00">FTC_A0006807</text>
<text text-anchor="middle" x="185.609" y="-166.6" font-family="Times Roman,serif" font-size="6.00">Anti&#45;nitrogen compound</text>
<text text-anchor="middle" x="185.609" y="-158.6" font-family="Times Roman,serif" font-size="6.00">metabolic process agent</text>
</a>
</g>
<!-- FTC_A0006139&#45;&gt;FTC_A0006807 -->
<g id="edge26" class="edge"><title>FTC_A0006139&#45;&gt;FTC_A0006807</title>
<path fill="none" stroke="gray" d="M225.226,-136.051C220.456,-139.897 215.391,-143.982 210.534,-147.899"/>
<polygon fill="gray" stroke="gray" points="209.844,-147.107 208.168,-149.807 211.162,-148.741 209.844,-147.107"/>
</g>
<!-- FTC_A0044237 -->
<g id="node28" class="node"><title>FTC_A0044237</title>
<a target='_top' xlink:href="#" xlink:title="FTC_A0044237\nAnti&#45;cellular metabolic\nprocess agent ">
<polygon fill="#72d93f" stroke="#72d93f" points="95.6089,-186 5.60893,-186 5.60893,-150 95.6089,-150 95.6089,-186"/>
<text text-anchor="middle" x="50.6089" y="-174.6" font-family="Times Roman,serif" font-size="6.00">FTC_A0044237</text>
<text text-anchor="middle" x="50.6089" y="-166.6" font-family="Times Roman,serif" font-size="6.00">Anti&#45;cellular metabolic</text>
<text text-anchor="middle" x="50.6089" y="-158.6" font-family="Times Roman,serif" font-size="6.00">process agent </text>
</a>
</g>
<!-- FTC_A0006139&#45;&gt;FTC_A0044237 -->
<g id="edge30" class="edge"><title>FTC_A0006139&#45;&gt;FTC_A0044237</title>
<path fill="none" stroke="gray" d="M202.565,-134.814C201.235,-135.225 199.914,-135.621 198.609,-136 189.001,-138.789 138.492,-149.575 99.1191,-157.862"/>
<polygon fill="gray" stroke="gray" points="98.5456,-156.91 95.826,-158.555 98.9779,-158.965 98.5456,-156.91"/>
</g>
<!-- FTC_A0006807&#45;&gt;FTC_A0008152 -->
<g id="edge28" class="edge"><title>FTC_A0006807&#45;&gt;FTC_A0008152</title>
<path fill="none" stroke="gray" d="M170.807,-186.051C167.825,-189.688 164.669,-193.537 161.618,-197.257"/>
<polygon fill="gray" stroke="gray" points="160.617,-196.822 159.527,-199.807 162.241,-198.153 160.617,-196.822"/>
</g>
<!-- FTC_A0044237&#45;&gt;FTC_A0008152 -->
<g id="edge32" class="edge"><title>FTC_A0044237&#45;&gt;FTC_A0008152</title>
<path fill="none" stroke="gray" d="M84.5451,-186.051C92.1326,-190.087 100.213,-194.385 107.907,-198.478"/>
<polygon fill="gray" stroke="gray" points="107.581,-199.493 110.723,-199.975 108.567,-197.639 107.581,-199.493"/>
</g>
<!-- FTC_A0009987 -->
<g id="node31" class="node"><title>FTC_A0009987</title>
<a target='_top' xlink:href="#" xlink:title="FTC_A0009987\nAnti&#45;cellular process\nagent ">
<polygon fill="#72d93f" stroke="#72d93f" points="92.6089,-236 2.60893,-236 2.60893,-200 92.6089,-200 92.6089,-236"/>
<text text-anchor="middle" x="47.6089" y="-224.6" font-family="Times Roman,serif" font-size="6.00">FTC_A0009987</text>
<text text-anchor="middle" x="47.6089" y="-216.6" font-family="Times Roman,serif" font-size="6.00">Anti&#45;cellular process</text>
<text text-anchor="middle" x="47.6089" y="-208.6" font-family="Times Roman,serif" font-size="6.00">agent </text>
</a>
</g>
<!-- FTC_A0044237&#45;&gt;FTC_A0009987 -->
<g id="edge34" class="edge"><title>FTC_A0044237&#45;&gt;FTC_A0009987</title>
<path fill="none" stroke="gray" d="M49.5259,-186.051C49.3245,-189.408 49.1122,-192.946 48.9051,-196.396"/>
<polygon fill="gray" stroke="gray" points="47.8321,-196.75 48.7005,-199.807 49.9284,-196.876 47.8321,-196.75"/>
</g>
<!-- FTC_A0009987&#45;&gt;FTC_A0008150 -->
<g id="edge36" class="edge"><title>FTC_A0009987&#45;&gt;FTC_A0008150</title>
<path fill="none" stroke="gray" d="M92.6551,-234.807C93.9842,-235.219 95.3042,-235.618 96.6089,-236 128.478,-245.324 164.986,-253.366 193.396,-259.056"/>
<polygon fill="gray" stroke="gray" points="193.321,-260.112 196.469,-259.669 193.732,-258.053 193.321,-260.112"/>
</g>
<!-- FTC_A0022414&#45;&gt;FTC_A0008150 -->
<g id="edge42" class="edge"><title>FTC_A0022414&#45;&gt;FTC_A0008150</title>
<path fill="none" stroke="gray" d="M303.59,-236.051C295.76,-240.087 287.421,-244.385 279.482,-248.478"/>
<polygon fill="gray" stroke="gray" points="278.762,-247.667 276.577,-249.975 279.724,-249.534 278.762,-247.667"/>
</g>
<!-- FTC_A0044249&#45;&gt;FTC_A0009058 -->
<g id="edge46" class="edge"><title>FTC_A0044249&#45;&gt;FTC_A0009058</title>
<path fill="none" stroke="gray" d="M53.6089,-86.0511C53.6089,-89.4078 53.6089,-92.9461 53.6089,-96.3964"/>
<polygon fill="gray" stroke="gray" points="52.559,-96.8074 53.6089,-99.8074 54.659,-96.8074 52.559,-96.8074"/>
</g>
<!-- FTC_A0044249&#45;&gt;FTC_A0044237 -->
<g id="edge48" class="edge"><title>FTC_A0044249&#45;&gt;FTC_A0044237</title>
<path fill="none" stroke="gray" d="M17.2695,-86.2334C12.5875,-90.1293 8.44445,-94.7018 5.60893,-100 -1.94079,-114.107 -1.72734,-121.781 5.60893,-136 7.82318,-140.292 10.9085,-144.133 14.4362,-147.536"/>
<polygon fill="gray" stroke="gray" points="14.0194,-148.577 16.944,-149.822 15.4341,-147.025 14.0194,-148.577"/>
</g>
<!-- FTC_P0051704 -->
<g id="node44" class="node"><title>FTC_P0051704</title>
<a target='_top' xlink:href="#" xlink:title="FTC_P0051704\nPro&#45;multi&#45;organism\nprocess agent ">
<polygon fill="#72d93f" stroke="#72d93f" points="439.609,-186 349.609,-186 349.609,-150 439.609,-150 439.609,-186"/>
<text text-anchor="middle" x="394.609" y="-174.6" font-family="Times Roman,serif" font-size="6.00">FTC_P0051704</text>
<text text-anchor="middle" x="394.609" y="-166.6" font-family="Times Roman,serif" font-size="6.00">Pro&#45;multi&#45;organism</text>
<text text-anchor="middle" x="394.609" y="-158.6" font-family="Times Roman,serif" font-size="6.00">process agent </text>
</a>
</g>
<!-- FTC_P0016032&#45;&gt;FTC_P0051704 -->
<g id="edge52" class="edge"><title>FTC_P0016032&#45;&gt;FTC_P0051704</title>
<path fill="none" stroke="gray" d="M394.609,-136.051C394.609,-139.408 394.609,-142.946 394.609,-146.396"/>
<polygon fill="gray" stroke="gray" points="393.559,-146.807 394.609,-149.807 395.659,-146.807 393.559,-146.807"/>
</g>
<!-- FTC_P0008150 -->
<g id="node46" class="node"><title>FTC_P0008150</title>
<a target='_top' xlink:href="#" xlink:title="FTC_P0008150\nPro&#45;biological_process\nagent ">
<polygon fill="#72d93f" stroke="#72d93f" points="411.609,-286 321.609,-286 321.609,-250 411.609,-250 411.609,-286"/>
<text text-anchor="middle" x="366.609" y="-274.6" font-family="Times Roman,serif" font-size="6.00">FTC_P0008150</text>
<text text-anchor="middle" x="366.609" y="-266.6" font-family="Times Roman,serif" font-size="6.00">Pro&#45;biological_process</text>
<text text-anchor="middle" x="366.609" y="-258.6" font-family="Times Roman,serif" font-size="6.00">agent </text>
</a>
</g>
<!-- FTC_P0051704&#45;&gt;FTC_P0008150 -->
<g id="edge54" class="edge"><title>FTC_P0051704&#45;&gt;FTC_P0008150</title>
<path fill="none" stroke="gray" d="M394.623,-186.095C394.13,-200.083 392.322,-219.738 386.609,-236 385.32,-239.67 383.552,-243.359 381.599,-246.861"/>
<polygon fill="gray" stroke="gray" points="380.517,-246.632 379.92,-249.754 382.334,-247.686 380.517,-246.632"/>
</g>
<!-- FTC_P0008150&#45;&gt;FTC_C1 -->
<g id="edge56" class="edge"><title>FTC_P0008150&#45;&gt;FTC_C1</title>
<path fill="none" stroke="gray" d="M343.864,-286.051C339.018,-289.897 333.872,-293.982 328.936,-297.899"/>
<polygon fill="gray" stroke="gray" points="328.229,-297.12 326.532,-299.807 329.534,-298.765 328.229,-297.12"/>
</g>
</g>
</svg>
